# xmcd
#
# Track frame offsets:
#	150
#	18310
#	36552
#	72612
#	108530
#	134535
#
# Disc length: 2183 seconds
#
# Revision: 1
# Processed by: cddbd v1.5.2PL0 Copyright (c) Steve Scherf et al.
# Submitted via: audiograbber 1.83.01
#
DISCID=5a088506
DTITLE=Peach - CD Single
DYEAR=1997
DGENRE=
TTITLE0=On My Own (U.S. Radio Mix)
TTITLE1=On My Own (Dave Bascombe Radio Mix)
TTITLE2=On My Own (Keith Litman Extended Vocal Mix)
TTITLE3=On My Own (Keith Litman On My Other Dub)
TTITLE4=On My Own (The 3P Muted Mix)
TTITLE5=On My Own (Klubbheads Tribal Dub)
EXTD=
EXTT0=
EXTT1=
EXTT2=
EXTT3=
EXTT4=
EXTT5=
PLAYORDER=
